<svg xmlns="http://www.w3.org/2000/svg" xmlns:xlink="http://www.w3.org/1999/xlink" width="500" zoomAndPan="magnify" viewBox="0 0 375 374.999991" height="500" preserveAspectRatio="xMidYMid meet" version="1.0"><defs><g/><clipPath id="977efca793"><path d="M 54.492188 101.050781 L 291.246094 101.050781 L 291.246094 197.800781 L 54.492188 197.800781 Z M 54.492188 101.050781 " clip-rule="nonzero"/></clipPath><clipPath id="6593528904"><path d="M 156.148438 101.046875 L 189.898438 101.046875 L 189.898438 140.796875 L 156.148438 140.796875 Z M 156.148438 101.046875 " clip-rule="nonzero"/></clipPath><clipPath id="164842ce43"><path d="M 30.484375 30.050781 L 339.1875 30.050781 L 339.1875 345 L 30.484375 345 Z M 30.484375 30.050781 " clip-rule="nonzero"/></clipPath><clipPath id="af9eb38682"><path d="M 339.1875 251.972656 C 339.1875 303.324219 270.097656 344.949219 184.867188 344.949219 C 99.640625 344.949219 30.546875 303.324219 30.546875 251.972656 L 30.546875 123.023438 C 30.546875 71.675781 99.640625 30.050781 184.867188 30.050781 C 270.097656 30.050781 339.1875 71.675781 339.1875 123.023438 L 339.1875 251.972656 " clip-rule="nonzero"/></clipPath><clipPath id="71e127e1be"><path d="M 30.1875 30.050781 L 339.1875 30.050781 L 339.1875 345.050781 L 30.1875 345.050781 Z M 30.1875 30.050781 " clip-rule="nonzero"/></clipPath><clipPath id="d0ddbb749c"><path d="M 339.1875 252.046875 C 339.1875 303.410156 270.015625 345.050781 184.6875 345.050781 C 99.359375 345.050781 30.1875 303.410156 30.1875 252.046875 L 30.1875 123.054688 C 30.1875 71.691406 99.359375 30.050781 184.6875 30.050781 C 270.015625 30.050781 339.1875 71.691406 339.1875 123.054688 L 339.1875 252.046875 " clip-rule="nonzero"/></clipPath><clipPath id="a40cd4df76"><path d="M 43.179688 42.574219 L 326.160156 42.574219 L 326.160156 332.808594 L 43.179688 332.808594 Z M 43.179688 42.574219 " clip-rule="nonzero"/></clipPath><clipPath id="8d514c48e5"><path d="M 326.160156 248.003906 C 326.160156 294.636719 262.902344 332.4375 184.867188 332.4375 C 106.832031 332.4375 43.574219 294.636719 43.574219 248.003906 L 43.574219 127.007812 C 43.574219 80.375 106.832031 42.574219 184.867188 42.574219 C 262.902344 42.574219 326.160156 80.375 326.160156 127.007812 L 326.160156 248.003906 " clip-rule="nonzero"/></clipPath><clipPath id="1587e9da8e"><path d="M 43.410156 42.574219 L 326.15625 42.574219 L 326.15625 332.074219 L 43.410156 332.074219 Z M 43.410156 42.574219 " clip-rule="nonzero"/></clipPath><clipPath id="5616618aea"><path d="M 326.15625 247.746094 C 326.15625 294.320312 262.863281 332.074219 184.785156 332.074219 C 106.707031 332.074219 43.414062 294.320312 43.414062 247.746094 L 43.414062 126.898438 C 43.414062 80.328125 106.707031 42.574219 184.785156 42.574219 C 262.863281 42.574219 326.15625 80.328125 326.15625 126.898438 L 326.15625 247.746094 " clip-rule="nonzero"/></clipPath><clipPath id="f864f4c419"><path d="M 66.492188 139.113281 L 303.246094 139.113281 L 303.246094 235.863281 L 66.492188 235.863281 Z M 66.492188 139.113281 " clip-rule="nonzero"/></clipPath><clipPath id="c6881c5bc8"><path d="M 168.148438 109.65625 L 201.898438 109.65625 L 201.898438 149.40625 L 168.148438 149.40625 Z M 168.148438 109.65625 " clip-rule="nonzero"/></clipPath></defs><g clip-path="url(#977efca793)"><path fill="#ffffff" d="M 148.445312 125.527344 C 150.585938 126.085938 152.039062 128.03125 152.035156 130.246094 C 152.035156 130.257812 152.035156 130.269531 152.035156 130.28125 C 152.035156 141.699219 161.300781 150.949219 172.730469 150.949219 C 184.160156 150.949219 193.425781 141.699219 193.425781 130.28125 C 193.425781 130.269531 193.425781 130.257812 193.425781 130.246094 C 193.421875 128.03125 194.875 126.085938 197.019531 125.527344 L 291.144531 101.050781 C 291.144531 101.050781 291.078125 101.308594 290.933594 101.792969 C 287.386719 113.65625 277.511719 122.554688 265.347656 124.953125 L 232.304688 131.46875 C 231.21875 131.683594 230.433594 132.703125 230.617188 133.792969 C 230.804688 134.921875 231.886719 135.667969 233.003906 135.445312 L 277.675781 126.640625 C 277.648438 126.671875 277.625 126.707031 277.597656 126.742188 C 272.660156 133.148438 265.523438 137.503906 257.582031 139.070312 L 219.488281 146.582031 C 218.390625 146.796875 217.679688 147.859375 217.894531 148.953125 C 218.109375 150.046875 219.175781 150.757812 220.269531 150.542969 L 262.308594 142.257812 C 249.804688 152.1875 232.222656 160.753906 207.738281 163.554688 C 176.542969 163.554688 172.730469 197.800781 172.730469 197.800781 C 172.730469 197.800781 168.917969 163.554688 137.722656 163.554688 C 113.238281 160.753906 95.660156 152.1875 83.15625 142.257812 L 125.191406 150.542969 C 126.285156 150.757812 127.351562 150.046875 127.566406 148.953125 C 127.78125 147.859375 127.070312 146.796875 125.972656 146.582031 L 87.882812 139.070312 C 79.9375 137.503906 72.800781 133.148438 67.863281 126.742188 C 67.835938 126.707031 67.8125 126.671875 67.785156 126.640625 L 112.457031 135.445312 C 113.574219 135.667969 114.65625 134.921875 114.84375 133.792969 C 115.027344 132.703125 114.246094 131.683594 113.160156 131.46875 L 80.113281 124.953125 C 67.949219 122.554688 58.074219 113.65625 54.527344 101.792969 C 54.382812 101.308594 54.316406 101.050781 54.316406 101.050781 L 148.445312 125.527344 " fill-opacity="1" fill-rule="nonzero"/></g><g clip-path="url(#6593528904)"><path fill="#ffffff" d="M 156.148438 101.089844 L 173.023438 140.777344 L 189.898438 101.089844 L 176.773438 101.070312 L 173.023438 129.429688 L 169.273438 101.070312 Z M 156.148438 101.089844 " fill-opacity="1" fill-rule="nonzero"/></g><g fill="#ffffff" fill-opacity="1"><g transform="translate(108.53906, 244.957674)"><g><path d="M 26 0 L 24.625 -17.125 L 24.453125 -17.125 L 18.53125 -0.171875 L 14.609375 -0.171875 L 8.6875 -17.125 L 8.515625 -17.125 L 7.140625 0 L 0.5625 0 L 3.15625 -28.90625 L 10.15625 -28.90625 L 16.5625 -12.21875 L 22.984375 -28.90625 L 29.984375 -28.90625 L 32.578125 0 Z M 26 0 "/></g></g></g><g fill="#ffffff" fill-opacity="1"><g transform="translate(141.67491, 244.957674)"><g><path d="M 9.140625 6.0625 L 7.5625 3.671875 C 7.632812 3.578125 7.726562 3.460938 7.84375 3.328125 C 7.957031 3.191406 8.203125 2.929688 8.578125 2.546875 C 8.953125 2.160156 9.3125 1.820312 9.65625 1.53125 C 10.007812 1.238281 10.421875 0.972656 10.890625 0.734375 C 11.359375 0.503906 11.789062 0.390625 12.1875 0.390625 L 12.1875 0.25 C 8.78125 -0.40625 6.03125 -2.085938 3.9375 -4.796875 C 1.851562 -7.503906 0.8125 -10.726562 0.8125 -14.46875 C 0.8125 -18.675781 2.210938 -22.21875 5.015625 -25.09375 C 7.816406 -27.976562 11.210938 -29.421875 15.203125 -29.421875 C 19.222656 -29.421875 22.617188 -27.976562 25.390625 -25.09375 C 28.171875 -22.21875 29.5625 -18.675781 29.5625 -14.46875 C 29.5625 -11.03125 28.640625 -8.003906 26.796875 -5.390625 C 24.953125 -2.773438 22.523438 -1.015625 19.515625 -0.109375 L 19.515625 0.03125 C 19.648438 0.03125 20.265625 0.140625 21.359375 0.359375 C 22.460938 0.585938 23.34375 0.703125 24 0.703125 C 24.882812 0.703125 25.6875 0.539062 26.40625 0.21875 C 27.132812 -0.09375 27.640625 -0.398438 27.921875 -0.703125 L 28.34375 -1.1875 L 30.40625 3.265625 C 30.363281 3.378906 30.285156 3.519531 30.171875 3.6875 C 30.066406 3.863281 29.828125 4.175781 29.453125 4.625 C 29.085938 5.070312 28.675781 5.46875 28.21875 5.8125 C 27.757812 6.164062 27.148438 6.484375 26.390625 6.765625 C 25.628906 7.046875 24.820312 7.1875 23.96875 7.1875 C 22.539062 7.1875 20.796875 6.726562 18.734375 5.8125 C 16.679688 4.90625 14.910156 4.453125 13.421875 4.453125 C 12.597656 4.453125 11.828125 4.582031 11.109375 4.84375 C 10.398438 5.113281 9.894531 5.390625 9.59375 5.671875 Z M 7.921875 -14.46875 C 7.921875 -13.34375 8.046875 -12.296875 8.296875 -11.328125 C 8.554688 -10.359375 8.957031 -9.476562 9.5 -8.6875 C 10.050781 -7.894531 10.8125 -7.269531 11.78125 -6.8125 C 12.75 -6.351562 13.890625 -6.125 15.203125 -6.125 C 17.648438 -6.125 19.46875 -6.914062 20.65625 -8.5 C 21.851562 -10.09375 22.453125 -12.082031 22.453125 -14.46875 C 22.453125 -16.820312 21.84375 -18.800781 20.625 -20.40625 C 19.414062 -22.007812 17.609375 -22.8125 15.203125 -22.8125 C 12.816406 -22.8125 11.003906 -22.003906 9.765625 -20.390625 C 8.535156 -18.773438 7.921875 -16.800781 7.921875 -14.46875 Z M 7.921875 -14.46875 "/></g></g></g><g fill="#ffffff" fill-opacity="1"><g transform="translate(172.043602, 244.957674)"><g><path d="M 2.109375 -12.828125 L 13.375 -12.828125 L 13.375 -7.46875 L 2.109375 -7.46875 Z M 2.109375 -12.828125 "/></g></g></g><g fill="#ffffff" fill-opacity="1"><g transform="translate(187.525683, 244.957674)"><g><path d="M 12.71875 -23.859375 C 11.78125 -23.859375 10.882812 -23.394531 10.03125 -22.46875 C 9.1875 -21.550781 8.5625 -20.632812 8.15625 -19.71875 L 7.5625 -18.359375 L 2.0625 -21.015625 C 2.132812 -21.253906 2.25 -21.554688 2.40625 -21.921875 C 2.570312 -22.296875 2.957031 -22.96875 3.5625 -23.9375 C 4.175781 -24.90625 4.847656 -25.757812 5.578125 -26.5 C 6.316406 -27.238281 7.320312 -27.910156 8.59375 -28.515625 C 9.875 -29.117188 11.25 -29.421875 12.71875 -29.421875 C 14.601562 -29.421875 16.253906 -29.179688 17.671875 -28.703125 C 19.085938 -28.222656 20.179688 -27.628906 20.953125 -26.921875 C 21.722656 -26.210938 22.347656 -25.375 22.828125 -24.40625 C 23.304688 -23.4375 23.609375 -22.550781 23.734375 -21.75 C 23.859375 -20.957031 23.921875 -20.128906 23.921875 -19.265625 C 23.921875 -18.003906 23.570312 -16.675781 22.875 -15.28125 C 22.175781 -13.894531 21.328125 -12.660156 20.328125 -11.578125 C 19.335938 -10.492188 18.335938 -9.5 17.328125 -8.59375 C 16.328125 -7.695312 15.476562 -7.003906 14.78125 -6.515625 L 13.734375 -5.78125 L 24.453125 -5.78125 L 24.453125 0 L 1.921875 0 L 1.921875 -1.640625 C 2.316406 -1.972656 2.851562 -2.425781 3.53125 -3 C 4.207031 -3.570312 5.398438 -4.660156 7.109375 -6.265625 C 8.816406 -7.878906 10.320312 -9.390625 11.625 -10.796875 C 12.9375 -12.210938 14.128906 -13.726562 15.203125 -15.34375 C 16.273438 -16.957031 16.8125 -18.265625 16.8125 -19.265625 C 16.8125 -19.660156 16.769531 -20.054688 16.6875 -20.453125 C 16.601562 -20.847656 16.445312 -21.332031 16.21875 -21.90625 C 15.988281 -22.476562 15.566406 -22.945312 14.953125 -23.3125 C 14.347656 -23.675781 13.601562 -23.859375 12.71875 -23.859375 Z M 12.71875 -23.859375 "/></g></g></g><g fill="#ffffff" fill-opacity="1"><g transform="translate(213.901258, 244.957674)"><g><path d="M 7.1875 -20.5625 L 2 -23.078125 C 2.039062 -23.242188 2.109375 -23.472656 2.203125 -23.765625 C 2.296875 -24.054688 2.578125 -24.5625 3.046875 -25.28125 C 3.515625 -26.007812 4.0625 -26.65625 4.6875 -27.21875 C 5.320312 -27.78125 6.242188 -28.285156 7.453125 -28.734375 C 8.671875 -29.191406 10.039062 -29.421875 11.5625 -29.421875 C 14.3125 -29.421875 16.578125 -28.632812 18.359375 -27.0625 C 20.148438 -25.488281 21.046875 -23.472656 21.046875 -21.015625 C 21.046875 -18.722656 20.195312 -16.914062 18.5 -15.59375 C 20.945312 -14.09375 22.171875 -11.882812 22.171875 -8.96875 C 22.171875 -6.207031 21.160156 -3.929688 19.140625 -2.140625 C 17.117188 -0.359375 14.554688 0.53125 11.453125 0.53125 C 9.796875 0.53125 8.289062 0.285156 6.9375 -0.203125 C 5.582031 -0.703125 4.523438 -1.296875 3.765625 -1.984375 C 3.003906 -2.671875 2.375 -3.363281 1.875 -4.0625 C 1.375 -4.757812 1.03125 -5.351562 0.84375 -5.84375 L 0.59375 -6.578125 L 6.6875 -9.5625 C 6.6875 -9.445312 6.703125 -9.289062 6.734375 -9.09375 C 6.773438 -8.894531 6.898438 -8.535156 7.109375 -8.015625 C 7.316406 -7.503906 7.570312 -7.054688 7.875 -6.671875 C 8.1875 -6.285156 8.648438 -5.9375 9.265625 -5.625 C 9.878906 -5.3125 10.597656 -5.15625 11.421875 -5.15625 C 12.660156 -5.15625 13.664062 -5.492188 14.4375 -6.171875 C 15.207031 -6.847656 15.59375 -7.78125 15.59375 -8.96875 C 15.59375 -10.207031 15.1875 -11.222656 14.375 -12.015625 C 13.570312 -12.804688 12.585938 -13.203125 11.421875 -13.203125 L 10.15625 -13 L 10.15625 -17.3125 L 11.59375 -17.3125 C 12.507812 -17.3125 13.316406 -17.660156 14.015625 -18.359375 C 14.710938 -19.054688 15.0625 -19.921875 15.0625 -20.953125 C 15.0625 -21.859375 14.703125 -22.613281 13.984375 -23.21875 C 13.273438 -23.832031 12.441406 -24.140625 11.484375 -24.140625 C 10.804688 -24.140625 10.191406 -24.015625 9.640625 -23.765625 C 9.097656 -23.523438 8.679688 -23.226562 8.390625 -22.875 C 8.097656 -22.519531 7.851562 -22.164062 7.65625 -21.8125 C 7.457031 -21.46875 7.332031 -21.179688 7.28125 -20.953125 Z M 7.1875 -20.5625 "/></g></g></g><g fill="#ffffff" fill-opacity="1"><g transform="translate(99.086288, 269.648596)"><g><path d="M 5.8125 0 L 3.40625 0 L 3.40625 -9.359375 L 0.3125 -9.359375 L 0.3125 -11.359375 L 8.90625 -11.359375 L 8.90625 -9.359375 L 5.8125 -9.359375 Z M 5.8125 0 "/></g></g></g><g fill="#ffffff" fill-opacity="1"><g transform="translate(108.302146, 269.648596)"><g><path d="M 7.96875 0 L 1.4375 0 L 1.4375 -11.359375 L 7.96875 -11.359375 L 7.96875 -9.390625 L 3.84375 -9.390625 L 3.84375 -6.890625 L 7.6875 -6.890625 L 7.6875 -4.921875 L 3.84375 -4.921875 L 3.84375 -1.984375 L 7.96875 -1.984375 Z M 7.96875 0 "/></g></g></g><g fill="#ffffff" fill-opacity="1"><g transform="translate(117.214953, 269.648596)"><g><path d="M 8.390625 0 L 7.5625 -2.703125 L 3.421875 -2.703125 L 2.59375 0 L 0 0 L 4.015625 -11.40625 L 6.953125 -11.40625 L 10.984375 0 Z M 6.984375 -4.734375 C 6.222656 -7.179688 5.796875 -8.566406 5.703125 -8.890625 C 5.609375 -9.210938 5.539062 -9.460938 5.5 -9.640625 C 5.320312 -8.984375 4.832031 -7.347656 4.03125 -4.734375 Z M 6.984375 -4.734375 "/></g></g></g><g fill="#ffffff" fill-opacity="1"><g transform="translate(128.194723, 269.648596)"><g><path d="M 6.25 0 L 3.5 -8.921875 L 3.4375 -8.921875 C 3.53125 -7.109375 3.578125 -5.894531 3.578125 -5.28125 L 3.578125 0 L 1.4375 0 L 1.4375 -11.359375 L 4.71875 -11.359375 L 7.40625 -2.671875 L 7.453125 -2.671875 L 10.296875 -11.359375 L 13.578125 -11.359375 L 13.578125 0 L 11.328125 0 L 11.328125 -5.375 C 11.328125 -5.632812 11.332031 -5.925781 11.34375 -6.25 C 11.351562 -6.582031 11.390625 -7.46875 11.453125 -8.90625 L 11.375 -8.90625 L 8.453125 0 Z M 6.25 0 "/></g></g></g><g fill="#ffffff" fill-opacity="1"><g transform="translate(143.199632, 269.648596)"><g/></g></g><g fill="#ffffff" fill-opacity="1"><g transform="translate(147.333558, 269.648596)"><g><path d="M 8.390625 0 L 7.5625 -2.703125 L 3.421875 -2.703125 L 2.59375 0 L 0 0 L 4.015625 -11.40625 L 6.953125 -11.40625 L 10.984375 0 Z M 6.984375 -4.734375 C 6.222656 -7.179688 5.796875 -8.566406 5.703125 -8.890625 C 5.609375 -9.210938 5.539062 -9.460938 5.5 -9.640625 C 5.320312 -8.984375 4.832031 -7.347656 4.03125 -4.734375 Z M 6.984375 -4.734375 "/></g></g></g><g fill="#ffffff" fill-opacity="1"><g transform="translate(158.313328, 269.648596)"><g><path d="M 7.96875 0 L 1.4375 0 L 1.4375 -11.359375 L 7.96875 -11.359375 L 7.96875 -9.390625 L 3.84375 -9.390625 L 3.84375 -6.890625 L 7.6875 -6.890625 L 7.6875 -4.921875 L 3.84375 -4.921875 L 3.84375 -1.984375 L 7.96875 -1.984375 Z M 7.96875 0 "/></g></g></g><g fill="#ffffff" fill-opacity="1"><g transform="translate(167.226135, 269.648596)"><g><path d="M 3.84375 -6.328125 L 4.625 -6.328125 C 5.382812 -6.328125 5.941406 -6.453125 6.296875 -6.703125 C 6.660156 -6.953125 6.84375 -7.351562 6.84375 -7.90625 C 6.84375 -8.4375 6.65625 -8.816406 6.28125 -9.046875 C 5.914062 -9.273438 5.347656 -9.390625 4.578125 -9.390625 L 3.84375 -9.390625 Z M 3.84375 -4.359375 L 3.84375 0 L 1.4375 0 L 1.4375 -11.359375 L 4.75 -11.359375 C 6.289062 -11.359375 7.429688 -11.078125 8.171875 -10.515625 C 8.910156 -9.953125 9.28125 -9.101562 9.28125 -7.96875 C 9.28125 -7.289062 9.09375 -6.691406 8.71875 -6.171875 C 8.351562 -5.648438 7.835938 -5.242188 7.171875 -4.953125 C 8.878906 -2.398438 9.992188 -0.75 10.515625 0 L 7.84375 0 L 5.125 -4.359375 Z M 3.84375 -4.359375 "/></g></g></g><g fill="#ffffff" fill-opacity="1"><g transform="translate(177.731902, 269.648596)"><g><path d="M 11.75 -5.703125 C 11.75 -3.816406 11.28125 -2.367188 10.34375 -1.359375 C 9.414062 -0.347656 8.082031 0.15625 6.34375 0.15625 C 4.59375 0.15625 3.25 -0.347656 2.3125 -1.359375 C 1.382812 -2.367188 0.921875 -3.820312 0.921875 -5.71875 C 0.921875 -7.601562 1.390625 -9.046875 2.328125 -10.046875 C 3.265625 -11.046875 4.609375 -11.546875 6.359375 -11.546875 C 8.097656 -11.546875 9.429688 -11.039062 10.359375 -10.03125 C 11.285156 -9.03125 11.75 -7.585938 11.75 -5.703125 Z M 3.453125 -5.703125 C 3.453125 -4.429688 3.691406 -3.472656 4.171875 -2.828125 C 4.648438 -2.179688 5.375 -1.859375 6.34375 -1.859375 C 8.257812 -1.859375 9.21875 -3.140625 9.21875 -5.703125 C 9.21875 -8.265625 8.265625 -9.546875 6.359375 -9.546875 C 5.390625 -9.546875 4.660156 -9.222656 4.171875 -8.578125 C 3.691406 -7.929688 3.453125 -6.972656 3.453125 -5.703125 Z M 3.453125 -5.703125 "/></g></g></g><g fill="#ffffff" fill-opacity="1"><g transform="translate(190.397878, 269.648596)"><g><path d="M 8.390625 0 L 7.5625 -2.703125 L 3.421875 -2.703125 L 2.59375 0 L 0 0 L 4.015625 -11.40625 L 6.953125 -11.40625 L 10.984375 0 Z M 6.984375 -4.734375 C 6.222656 -7.179688 5.796875 -8.566406 5.703125 -8.890625 C 5.609375 -9.210938 5.539062 -9.460938 5.5 -9.640625 C 5.320312 -8.984375 4.832031 -7.347656 4.03125 -4.734375 Z M 6.984375 -4.734375 "/></g></g></g><g fill="#ffffff" fill-opacity="1"><g transform="translate(201.377648, 269.648596)"><g><path d="M 8.140625 -3.15625 C 8.140625 -2.125 7.769531 -1.3125 7.03125 -0.71875 C 6.289062 -0.132812 5.265625 0.15625 3.953125 0.15625 C 2.734375 0.15625 1.660156 -0.0703125 0.734375 -0.53125 L 0.734375 -2.765625 C 1.492188 -2.421875 2.140625 -2.175781 2.671875 -2.03125 C 3.203125 -1.894531 3.691406 -1.828125 4.140625 -1.828125 C 4.660156 -1.828125 5.0625 -1.925781 5.34375 -2.125 C 5.632812 -2.332031 5.78125 -2.640625 5.78125 -3.046875 C 5.78125 -3.265625 5.71875 -3.457031 5.59375 -3.625 C 5.46875 -3.800781 5.285156 -3.96875 5.046875 -4.125 C 4.804688 -4.289062 4.3125 -4.550781 3.5625 -4.90625 C 2.875 -5.226562 2.351562 -5.539062 2 -5.84375 C 1.65625 -6.144531 1.378906 -6.492188 1.171875 -6.890625 C 0.960938 -7.296875 0.859375 -7.765625 0.859375 -8.296875 C 0.859375 -9.296875 1.195312 -10.082031 1.875 -10.65625 C 2.5625 -11.238281 3.507812 -11.53125 4.71875 -11.53125 C 5.300781 -11.53125 5.859375 -11.457031 6.390625 -11.3125 C 6.929688 -11.175781 7.492188 -10.984375 8.078125 -10.734375 L 7.3125 -8.859375 C 6.695312 -9.109375 6.191406 -9.28125 5.796875 -9.375 C 5.398438 -9.476562 5.015625 -9.53125 4.640625 -9.53125 C 4.179688 -9.53125 3.828125 -9.421875 3.578125 -9.203125 C 3.335938 -8.992188 3.21875 -8.71875 3.21875 -8.375 C 3.21875 -8.15625 3.265625 -7.96875 3.359375 -7.8125 C 3.460938 -7.65625 3.617188 -7.503906 3.828125 -7.359375 C 4.046875 -7.210938 4.554688 -6.945312 5.359375 -6.5625 C 6.421875 -6.050781 7.148438 -5.539062 7.546875 -5.03125 C 7.941406 -4.519531 8.140625 -3.894531 8.140625 -3.15625 Z M 8.140625 -3.15625 "/></g></g></g><g fill="#ffffff" fill-opacity="1"><g transform="translate(210.142815, 269.648596)"><g><path d="M 5.8125 0 L 3.40625 0 L 3.40625 -9.359375 L 0.3125 -9.359375 L 0.3125 -11.359375 L 8.90625 -11.359375 L 8.90625 -9.359375 L 5.8125 -9.359375 Z M 5.8125 0 "/></g></g></g><g fill="#ffffff" fill-opacity="1"><g transform="translate(219.358673, 269.648596)"><g><path d="M 3.84375 -6.328125 L 4.625 -6.328125 C 5.382812 -6.328125 5.941406 -6.453125 6.296875 -6.703125 C 6.660156 -6.953125 6.84375 -7.351562 6.84375 -7.90625 C 6.84375 -8.4375 6.65625 -8.816406 6.28125 -9.046875 C 5.914062 -9.273438 5.347656 -9.390625 4.578125 -9.390625 L 3.84375 -9.390625 Z M 3.84375 -4.359375 L 3.84375 0 L 1.4375 0 L 1.4375 -11.359375 L 4.75 -11.359375 C 6.289062 -11.359375 7.429688 -11.078125 8.171875 -10.515625 C 8.910156 -9.953125 9.28125 -9.101562 9.28125 -7.96875 C 9.28125 -7.289062 9.09375 -6.691406 8.71875 -6.171875 C 8.351562 -5.648438 7.835938 -5.242188 7.171875 -4.953125 C 8.878906 -2.398438 9.992188 -0.75 10.515625 0 L 7.84375 0 L 5.125 -4.359375 Z M 3.84375 -4.359375 "/></g></g></g><g fill="#ffffff" fill-opacity="1"><g transform="translate(229.86444, 269.648596)"><g><path d="M 11.75 -5.703125 C 11.75 -3.816406 11.28125 -2.367188 10.34375 -1.359375 C 9.414062 -0.347656 8.082031 0.15625 6.34375 0.15625 C 4.59375 0.15625 3.25 -0.347656 2.3125 -1.359375 C 1.382812 -2.367188 0.921875 -3.820312 0.921875 -5.71875 C 0.921875 -7.601562 1.390625 -9.046875 2.328125 -10.046875 C 3.265625 -11.046875 4.609375 -11.546875 6.359375 -11.546875 C 8.097656 -11.546875 9.429688 -11.039062 10.359375 -10.03125 C 11.285156 -9.03125 11.75 -7.585938 11.75 -5.703125 Z M 3.453125 -5.703125 C 3.453125 -4.429688 3.691406 -3.472656 4.171875 -2.828125 C 4.648438 -2.179688 5.375 -1.859375 6.34375 -1.859375 C 8.257812 -1.859375 9.21875 -3.140625 9.21875 -5.703125 C 9.21875 -8.265625 8.265625 -9.546875 6.359375 -9.546875 C 5.390625 -9.546875 4.660156 -9.222656 4.171875 -8.578125 C 3.691406 -7.929688 3.453125 -6.972656 3.453125 -5.703125 Z M 3.453125 -5.703125 "/></g></g></g><g fill="#ffffff" fill-opacity="1"><g transform="translate(242.523783, 269.648596)"><g/></g></g><g clip-path="url(#164842ce43)"><g clip-path="url(#af9eb38682)"><path fill="#101930" d="M 339.1875 30.050781 L 339.1875 345.292969 L 30.484375 345.292969 L 30.484375 30.050781 Z M 339.1875 30.050781 " fill-opacity="1" fill-rule="nonzero"/></g></g><g clip-path="url(#71e127e1be)"><g clip-path="url(#d0ddbb749c)"><path stroke-linecap="butt" transform="matrix(0.000000000000000046, 0.750251, -0.750883, 0.000000000000000046, 339.189124, 30.050715)" fill="none" stroke-linejoin="miter" d="M 295.895791 0.00216256 C 364.35724 0.00216256 419.859487 92.122904 419.859487 205.759988 C 419.859487 319.397071 364.35724 411.517813 295.895791 411.517813 L 123.963784 411.517813 C 55.502336 411.517813 0.0000888547 319.397071 0.0000888547 205.759988 C 0.0000888547 92.122904 55.502336 0.00216256 123.963784 0.00216256 L 295.895791 0.00216256 " stroke="#4f92c2" stroke-width="22" stroke-opacity="1" stroke-miterlimit="4"/></g></g><g clip-path="url(#a40cd4df76)"><g clip-path="url(#8d514c48e5)"><path fill="#101930" d="M 326.160156 42.574219 L 326.160156 332.148438 L 43.839844 332.148438 L 43.839844 42.574219 Z M 326.160156 42.574219 " fill-opacity="1" fill-rule="nonzero"/></g></g><g clip-path="url(#1587e9da8e)"><g clip-path="url(#5616618aea)"><path fill="#4f92c2" d="M 329.15625 247.746094 C 329.15625 248.8125 329.125 249.875 329.0625 250.933594 L 323.070312 250.582031 C 323.125 249.640625 323.152344 248.695312 323.152344 247.746094 Z M 328.785156 254.09375 C 328.660156 255.140625 328.507812 256.183594 328.324219 257.222656 L 322.410156 256.179688 C 322.574219 255.253906 322.710938 254.324219 322.820312 253.394531 Z M 327.683594 260.320312 C 327.441406 261.34375 327.167969 262.363281 326.867188 263.378906 L 321.113281 261.679688 C 321.382812 260.769531 321.625 259.855469 321.839844 258.941406 Z M 325.886719 266.386719 C 325.539062 267.367188 325.160156 268.339844 324.753906 269.3125 L 319.210938 267.011719 C 319.578125 266.136719 319.917969 265.257812 320.230469 264.375 Z M 323.46875 272.195312 C 323.015625 273.136719 322.539062 274.074219 322.039062 275.003906 L 316.75 272.164062 C 317.207031 271.320312 317.640625 270.46875 318.046875 269.613281 Z M 320.5 277.707031 C 319.964844 278.601562 319.40625 279.484375 318.824219 280.367188 L 313.8125 277.0625 C 314.347656 276.253906 314.859375 275.445312 315.347656 274.628906 Z M 317.03125 282.949219 C 316.433594 283.777344 315.8125 284.59375 315.171875 285.410156 L 310.449219 281.707031 C 311.042969 280.953125 311.617188 280.199219 312.167969 279.4375 Z M 313.191406 287.824219 C 312.519531 288.617188 311.824219 289.402344 311.109375 290.183594 L 306.679688 286.136719 C 307.34375 285.410156 307.992188 284.679688 308.617188 283.945312 Z M 309.003906 292.398438 C 308.285156 293.132812 307.550781 293.855469 306.796875 294.574219 L 302.652344 290.238281 C 303.355469 289.566406 304.042969 288.890625 304.714844 288.207031 Z M 304.492188 296.703125 C 303.738281 297.375 302.96875 298.046875 302.183594 298.707031 L 298.308594 294.128906 C 299.050781 293.503906 299.777344 292.875 300.488281 292.238281 Z M 299.808594 300.648438 C 299.003906 301.289062 298.183594 301.921875 297.351562 302.550781 L 293.742188 297.761719 C 294.53125 297.167969 295.304688 296.566406 296.066406 295.960938 Z M 294.847656 304.378906 C 294.027344 304.960938 293.195312 305.535156 292.351562 306.105469 L 288.992188 301.136719 C 289.796875 300.597656 290.585938 300.046875 291.367188 299.496094 Z M 289.78125 307.792969 C 288.914062 308.347656 288.03125 308.894531 287.140625 309.433594 L 284.023438 304.3125 C 284.875 303.796875 285.714844 303.273438 286.542969 302.746094 Z M 284.511719 310.988281 C 283.640625 311.492188 282.757812 311.988281 281.863281 312.476562 L 278.972656 307.226562 C 279.828125 306.757812 280.675781 306.28125 281.511719 305.796875 Z M 279.152344 313.925781 C 278.238281 314.402344 277.316406 314.871094 276.382812 315.335938 L 273.710938 309.96875 C 274.609375 309.523438 275.496094 309.074219 276.375 308.617188 Z M 273.65625 316.652344 C 272.746094 317.082031 271.824219 317.503906 270.894531 317.921875 L 268.4375 312.457031 C 269.332031 312.054688 270.214844 311.648438 271.09375 311.234375 Z M 268.082031 319.152344 C 267.136719 319.554688 266.183594 319.953125 265.222656 320.339844 L 262.964844 314.789062 C 263.894531 314.414062 264.8125 314.03125 265.726562 313.640625 Z M 262.390625 321.460938 L 259.597656 322.507812 L 257.484375 316.898438 L 260.277344 315.847656 Z M 256.664062 323.550781 L 253.785156 324.523438 L 251.863281 318.84375 L 254.742188 317.875 Z M 250.855469 325.457031 L 248 326.320312 L 246.261719 320.582031 L 249.117188 319.722656 Z M 245.023438 327.167969 L 242.09375 327.957031 L 240.535156 322.167969 L 243.460938 321.382812 Z M 239.097656 328.714844 L 236.199219 329.398438 L 234.8125 323.570312 L 237.710938 322.882812 Z M 233.191406 330.066406 L 230.234375 330.679688 L 229.015625 324.808594 L 231.972656 324.199219 Z M 227.171875 331.265625 L 224.246094 331.785156 L 223.195312 325.886719 L 226.117188 325.367188 Z M 221.21875 332.28125 L 218.242188 332.726562 L 217.351562 326.800781 L 220.328125 326.355469 Z M 215.164062 333.144531 L 212.183594 333.507812 L 211.453125 327.558594 L 214.433594 327.195312 Z M 209.140625 333.839844 L 206.160156 334.125 L 205.585938 328.160156 L 208.570312 327.875 Z M 203.078125 334.378906 L 200.054688 334.589844 L 199.636719 328.613281 L 202.660156 328.402344 Z M 197 334.765625 L 194.015625 334.894531 L 193.753906 328.910156 L 196.734375 328.777344 Z M 190.941406 334.992188 L 187.925781 335.050781 L 187.8125 329.058594 L 190.828125 329 Z M 184.839844 335.070312 L 184.785156 335.070312 L 181.789062 335.050781 L 181.828125 329.058594 L 184.785156 329.078125 L 184.839844 329.078125 Z M 178.699219 334.996094 L 175.699219 334.902344 L 175.886719 328.910156 L 178.886719 329.003906 Z M 172.640625 334.765625 L 169.660156 334.597656 L 170 328.617188 L 172.976562 328.785156 Z M 166.5625 334.386719 L 163.558594 334.136719 L 164.050781 328.164062 L 167.054688 328.414062 Z M 160.496094 333.847656 L 157.535156 333.523438 L 158.183594 327.566406 L 161.144531 327.886719 Z M 154.476562 333.152344 L 151.476562 332.746094 L 152.28125 326.808594 L 155.28125 327.214844 Z M 148.417969 332.292969 L 145.46875 331.808594 L 146.4375 325.894531 L 149.386719 326.375 Z M 142.464844 331.277344 L 139.484375 330.707031 L 140.617188 324.824219 L 143.59375 325.390625 Z M 136.445312 330.082031 L 133.515625 329.433594 L 134.816406 323.582031 L 137.742188 324.230469 Z M 130.535156 328.726562 L 127.625 327.996094 L 129.09375 322.183594 L 132.003906 322.917969 Z M 124.609375 327.1875 L 121.71875 326.363281 L 123.363281 320.601562 L 126.253906 321.421875 Z M 118.773438 325.476562 L 115.9375 324.570312 L 117.761719 318.863281 L 120.597656 319.765625 Z M 112.960938 323.570312 L 110.125 322.5625 L 112.136719 316.914062 L 114.976562 317.925781 Z M 107.234375 321.480469 L 104.476562 320.390625 L 106.679688 314.820312 L 109.4375 315.90625 Z M 101.585938 319.195312 C 100.640625 318.792969 99.703125 318.382812 98.773438 317.964844 L 101.230469 312.5 C 102.125 312.898438 103.03125 313.292969 103.941406 313.683594 Z M 96.011719 316.699219 C 95.09375 316.265625 94.1875 315.828125 93.289062 315.382812 L 95.953125 310.015625 C 96.816406 310.441406 97.6875 310.863281 98.570312 311.277344 Z M 90.515625 313.976562 C 89.601562 313.503906 88.695312 313.019531 87.804688 312.53125 L 90.6875 307.277344 C 91.546875 307.746094 92.414062 308.207031 93.289062 308.664062 Z M 85.148438 311.042969 C 84.265625 310.53125 83.390625 310.015625 82.527344 309.492188 L 85.640625 304.367188 C 86.464844 304.867188 87.300781 305.363281 88.148438 305.851562 Z M 79.882812 307.851562 C 79.011719 307.296875 78.15625 306.734375 77.3125 306.164062 L 80.664062 301.195312 C 81.46875 301.738281 82.289062 302.273438 83.117188 302.800781 Z M 74.808594 304.4375 C 73.964844 303.839844 73.128906 303.230469 72.308594 302.617188 L 75.914062 297.824219 C 76.691406 298.40625 77.484375 298.984375 78.289062 299.554688 Z M 69.847656 300.71875 C 69.039062 300.078125 68.25 299.429688 67.472656 298.777344 L 71.339844 294.195312 C 72.074219 294.8125 72.820312 295.421875 73.582031 296.027344 Z M 65.160156 296.777344 C 64.375 296.074219 63.605469 295.367188 62.851562 294.648438 L 66.996094 290.3125 C 67.699219 290.984375 68.421875 291.648438 69.164062 292.308594 Z M 60.644531 292.476562 C 59.921875 291.746094 59.21875 291.007812 58.535156 290.261719 L 62.957031 286.210938 C 63.597656 286.90625 64.253906 287.59375 64.925781 288.277344 Z M 56.449219 287.910156 C 55.769531 287.113281 55.109375 286.308594 54.46875 285.496094 L 59.183594 281.785156 C 59.773438 282.539062 60.386719 283.28125 61.019531 284.023438 Z M 52.601562 283.039062 C 51.984375 282.183594 51.382812 281.324219 50.808594 280.460938 L 55.8125 277.148438 C 56.339844 277.941406 56.890625 278.734375 57.460938 279.515625 Z M 49.128906 277.804688 C 48.589844 276.910156 48.074219 276.007812 47.585938 275.101562 L 52.867188 272.253906 C 53.3125 273.078125 53.78125 273.898438 54.273438 274.714844 Z M 46.152344 272.296875 C 45.695312 271.339844 45.261719 270.378906 44.859375 269.414062 L 50.394531 267.101562 C 50.761719 267.976562 51.152344 268.84375 51.566406 269.707031 Z M 43.722656 266.492188 C 43.363281 265.496094 43.035156 264.492188 42.734375 263.488281 L 48.488281 261.777344 C 48.757812 262.675781 49.050781 263.574219 49.371094 264.472656 Z M 41.914062 260.429688 C 41.667969 259.398438 41.453125 258.367188 41.265625 257.332031 L 47.175781 256.277344 C 47.339844 257.203125 47.535156 258.121094 47.753906 259.039062 Z M 40.800781 254.207031 C 40.671875 253.15625 40.578125 252.101562 40.515625 251.046875 L 46.507812 250.683594 C 46.5625 251.621094 46.648438 252.558594 46.761719 253.492188 Z M 40.414062 247.859375 L 40.414062 244.859375 L 46.417969 244.859375 L 46.417969 247.851562 Z M 40.414062 241.863281 L 40.414062 238.867188 L 46.417969 238.867188 L 46.417969 241.863281 Z M 40.414062 235.871094 L 40.414062 232.871094 L 46.417969 232.871094 L 46.417969 235.871094 Z M 40.414062 229.875 L 40.414062 226.878906 L 46.417969 226.878906 L 46.417969 229.875 Z M 40.414062 223.882812 L 40.414062 220.886719 L 46.417969 220.886719 L 46.417969 223.882812 Z M 40.414062 217.890625 L 40.414062 214.894531 L 46.417969 214.894531 L 46.417969 217.890625 Z M 40.414062 211.898438 L 40.414062 208.902344 L 46.417969 208.902344 L 46.417969 211.898438 Z M 40.414062 205.90625 L 40.414062 202.910156 L 46.417969 202.910156 L 46.417969 205.90625 Z M 40.414062 199.914062 L 40.414062 196.917969 L 46.417969 196.917969 L 46.417969 199.914062 Z M 40.414062 193.921875 L 40.414062 190.921875 L 46.417969 190.921875 L 46.417969 193.921875 Z M 40.414062 187.925781 L 40.414062 184.929688 L 46.417969 184.929688 L 46.417969 187.925781 Z M 40.414062 181.933594 L 40.414062 178.9375 L 46.417969 178.9375 L 46.417969 181.933594 Z M 40.414062 175.941406 L 40.414062 172.945312 L 46.417969 172.945312 L 46.417969 175.941406 Z M 40.414062 169.949219 L 40.414062 166.953125 L 46.417969 166.953125 L 46.417969 169.949219 Z M 40.414062 163.957031 L 40.414062 160.960938 L 46.417969 160.960938 L 46.417969 163.957031 Z M 40.414062 157.964844 L 40.414062 154.96875 L 46.417969 154.96875 L 46.417969 157.964844 Z M 40.414062 151.972656 L 40.414062 148.976562 L 46.417969 148.976562 L 46.417969 151.972656 Z M 40.414062 145.976562 L 40.414062 142.980469 L 46.417969 142.980469 L 46.417969 145.976562 Z M 40.414062 139.984375 L 40.414062 136.988281 L 46.417969 136.988281 L 46.417969 139.984375 Z M 40.414062 133.992188 L 40.414062 130.996094 L 46.417969 130.996094 L 46.417969 133.992188 Z M 40.414062 128 L 40.414062 126.898438 C 40.414062 126.226562 40.425781 125.554688 40.453125 124.878906 L 46.449219 125.101562 C 46.429688 125.703125 46.417969 126.300781 46.417969 126.898438 L 46.417969 128 Z M 40.664062 121.710938 C 40.761719 120.660156 40.894531 119.613281 41.058594 118.570312 L 46.988281 119.488281 C 46.84375 120.417969 46.726562 121.347656 46.640625 122.28125 Z M 41.632812 115.460938 C 41.851562 114.433594 42.101562 113.410156 42.382812 112.386719 L 48.171875 113.96875 C 47.921875 114.882812 47.699219 115.800781 47.5 116.714844 Z M 43.304688 109.351562 C 43.636719 108.367188 43.996094 107.382812 44.378906 106.40625 L 49.964844 108.601562 C 49.617188 109.480469 49.296875 110.363281 49 111.25 Z M 45.613281 103.507812 C 46.046875 102.550781 46.507812 101.597656 47 100.652344 L 52.335938 103.398438 C 51.890625 104.257812 51.472656 105.121094 51.078125 105.984375 Z M 48.488281 97.925781 C 49.007812 97.03125 49.550781 96.136719 50.117188 95.253906 L 55.175781 98.476562 C 54.660156 99.285156 54.164062 100.101562 53.691406 100.917969 Z M 51.878906 92.625 C 52.464844 91.789062 53.074219 90.960938 53.703125 90.136719 L 58.476562 93.769531 C 57.894531 94.53125 57.335938 95.296875 56.792969 96.0625 Z M 55.636719 87.703125 C 56.300781 86.902344 56.984375 86.109375 57.691406 85.320312 L 62.171875 89.304688 C 61.515625 90.039062 60.882812 90.777344 60.265625 91.523438 Z M 59.78125 83.058594 C 60.488281 82.320312 61.210938 81.589844 61.953125 80.867188 L 66.148438 85.152344 C 65.457031 85.828125 64.78125 86.511719 64.121094 87.199219 Z M 64.21875 78.722656 C 64.976562 78.03125 65.75 77.34375 66.539062 76.664062 L 70.460938 81.203125 C 69.714844 81.84375 68.988281 82.488281 68.277344 83.140625 Z M 68.878906 74.707031 C 69.675781 74.0625 70.484375 73.421875 71.308594 72.792969 L 74.964844 77.542969 C 74.1875 78.140625 73.421875 78.746094 72.667969 79.355469 Z M 73.820312 70.917969 C 74.632812 70.332031 75.457031 69.75 76.296875 69.171875 L 79.699219 74.109375 C 78.902344 74.65625 78.117188 75.210938 77.34375 75.769531 Z M 78.839844 67.472656 C 79.699219 66.910156 80.570312 66.359375 81.453125 65.8125 L 84.613281 70.90625 C 83.769531 71.425781 82.941406 71.953125 82.121094 72.488281 Z M 84.097656 64.21875 C 84.964844 63.707031 85.839844 63.207031 86.726562 62.710938 L 89.660156 67.941406 C 88.808594 68.414062 87.972656 68.894531 87.144531 69.382812 Z M 89.417969 61.246094 C 90.324219 60.765625 91.238281 60.292969 92.164062 59.824219 L 94.875 65.171875 C 93.984375 65.621094 93.105469 66.078125 92.234375 66.539062 Z M 94.910156 58.472656 C 95.816406 58.039062 96.730469 57.609375 97.65625 57.1875 L 100.152344 62.636719 C 99.265625 63.042969 98.386719 63.453125 97.515625 63.875 Z M 100.449219 55.945312 C 101.386719 55.535156 102.335938 55.132812 103.292969 54.738281 L 105.585938 60.277344 C 104.664062 60.65625 103.75 61.042969 102.84375 61.4375 Z M 106.148438 53.589844 L 108.925781 52.527344 L 111.074219 58.125 L 108.296875 59.1875 Z M 111.84375 51.46875 L 114.707031 50.484375 L 116.664062 56.148438 L 113.796875 57.136719 Z M 117.660156 49.519531 L 120.5 48.644531 L 122.273438 54.371094 L 119.433594 55.246094 Z M 123.46875 47.78125 L 126.378906 46.980469 L 127.972656 52.757812 L 125.058594 53.558594 Z M 129.402344 46.199219 L 132.289062 45.5 L 133.707031 51.324219 L 130.820312 52.023438 Z M 135.285156 44.820312 L 138.230469 44.191406 L 139.480469 50.054688 L 136.535156 50.679688 Z M 141.289062 43.589844 L 144.230469 43.050781 L 145.3125 48.945312 L 142.371094 49.484375 Z M 147.253906 42.542969 L 150.21875 42.082031 L 151.136719 48.003906 L 148.171875 48.464844 Z M 153.289062 41.652344 L 156.292969 41.269531 L 157.050781 47.214844 L 154.046875 47.597656 Z M 159.324219 40.925781 L 162.300781 40.625 L 162.902344 46.585938 L 159.925781 46.886719 Z M 165.371094 40.355469 L 168.386719 40.132812 L 168.835938 46.109375 L 165.820312 46.332031 Z M 171.464844 39.941406 L 174.441406 39.796875 L 174.734375 45.78125 L 171.757812 45.929688 Z M 177.511719 39.6875 L 180.519531 39.613281 L 180.664062 45.605469 L 177.652344 45.675781 Z M 183.609375 39.582031 L 184.777344 39.578125 L 186.664062 39.585938 L 186.640625 45.578125 L 184.792969 45.570312 L 183.625 45.574219 Z M 189.753906 39.628906 L 192.757812 39.707031 L 192.597656 45.699219 L 189.59375 45.617188 Z M 195.824219 39.828125 L 198.796875 39.980469 L 198.484375 45.964844 L 195.511719 45.8125 Z M 201.886719 40.179688 L 204.898438 40.414062 L 204.433594 46.390625 L 201.421875 46.15625 Z M 207.96875 40.691406 L 210.9375 41 L 210.316406 46.960938 L 207.347656 46.652344 Z M 213.972656 41.355469 L 216.980469 41.746094 L 216.203125 47.6875 L 213.195312 47.296875 Z M 220.046875 42.1875 L 223.007812 42.65625 L 222.066406 48.574219 L 219.109375 48.105469 Z M 226.019531 43.171875 L 228.976562 43.722656 L 227.875 49.613281 L 224.921875 49.0625 Z M 232.027344 44.335938 L 234.96875 44.96875 L 233.699219 50.828125 L 230.761719 50.195312 Z M 237.960938 45.660156 L 240.847656 46.371094 L 239.410156 52.191406 L 236.523438 51.480469 Z M 243.875 47.164062 L 246.777344 47.972656 L 245.164062 53.746094 L 242.261719 52.9375 Z M 249.738281 48.847656 L 252.566406 49.730469 L 250.773438 55.449219 L 247.945312 54.566406 Z M 255.539062 50.710938 L 258.390625 51.707031 L 256.414062 57.363281 L 253.558594 56.371094 Z M 261.296875 52.773438 L 264.066406 53.84375 L 261.898438 59.433594 L 259.128906 58.363281 Z M 266.9375 55.011719 C 267.890625 55.410156 268.832031 55.816406 269.769531 56.226562 L 267.351562 61.710938 C 266.449219 61.3125 265.539062 60.925781 264.621094 60.539062 Z M 272.550781 57.480469 C 273.46875 57.90625 274.378906 58.335938 275.28125 58.773438 L 272.65625 64.164062 C 271.789062 63.742188 270.914062 63.328125 270.03125 62.917969 Z M 278.042969 60.148438 C 278.964844 60.621094 279.875 61.097656 280.777344 61.582031 L 277.933594 66.859375 C 277.070312 66.394531 276.195312 65.9375 275.308594 65.484375 Z M 283.453125 63.054688 C 284.335938 63.554688 285.207031 64.058594 286.066406 64.570312 L 282.996094 69.71875 C 282.175781 69.230469 281.339844 68.746094 280.496094 68.269531 Z M 288.726562 66.191406 C 289.605469 66.738281 290.46875 67.296875 291.324219 67.859375 L 288.015625 72.859375 C 287.199219 72.320312 286.375 71.792969 285.535156 71.265625 Z M 293.851562 69.570312 C 294.691406 70.15625 295.519531 70.746094 296.335938 71.347656 L 292.78125 76.175781 C 292.003906 75.605469 291.21875 75.042969 290.417969 74.488281 Z M 298.828125 73.226562 C 299.644531 73.863281 300.449219 74.503906 301.238281 75.152344 L 297.417969 79.777344 C 296.671875 79.164062 295.914062 78.558594 295.140625 77.957031 Z M 303.558594 77.121094 C 304.351562 77.8125 305.125 78.507812 305.882812 79.210938 L 301.792969 83.597656 C 301.078125 82.9375 300.351562 82.28125 299.609375 81.632812 Z M 308.128906 81.367188 C 308.859375 82.09375 309.574219 82.828125 310.273438 83.566406 L 305.902344 87.675781 C 305.25 86.984375 304.582031 86.296875 303.894531 85.621094 Z M 312.363281 85.863281 C 313.058594 86.65625 313.734375 87.457031 314.386719 88.261719 L 309.726562 92.035156 C 309.121094 91.289062 308.492188 90.550781 307.847656 89.8125 Z M 316.296875 90.703125 C 316.921875 91.539062 317.527344 92.378906 318.109375 93.226562 L 313.160156 96.617188 C 312.625 95.835938 312.066406 95.0625 311.492188 94.292969 Z M 319.839844 95.863281 C 320.398438 96.753906 320.929688 97.648438 321.433594 98.550781 L 316.203125 101.488281 C 315.738281 100.664062 315.253906 99.847656 314.746094 99.035156 Z M 322.90625 101.304688 C 323.382812 102.253906 323.832031 103.210938 324.253906 104.171875 L 318.761719 106.585938 C 318.378906 105.71875 317.96875 104.851562 317.539062 103.992188 Z M 325.449219 107.078125 C 325.824219 108.0625 326.171875 109.054688 326.492188 110.046875 L 320.773438 111.875 C 320.488281 110.984375 320.175781 110.09375 319.839844 109.207031 Z M 327.375 113.09375 C 327.644531 114.117188 327.878906 115.144531 328.085938 116.175781 L 322.199219 117.351562 C 322.015625 116.433594 321.804688 115.515625 321.566406 114.601562 Z M 328.621094 119.292969 C 328.769531 120.335938 328.886719 121.386719 328.972656 122.4375 L 322.988281 122.929688 C 322.914062 121.996094 322.808594 121.0625 322.675781 120.128906 Z M 329.140625 125.613281 C 329.152344 126.042969 329.15625 126.472656 329.15625 126.898438 L 329.15625 128.691406 L 323.152344 128.691406 L 323.152344 126.898438 C 323.152344 126.519531 323.148438 126.136719 323.140625 125.753906 Z M 329.15625 131.6875 L 329.15625 134.683594 L 323.152344 134.683594 L 323.152344 131.6875 Z M 329.15625 137.679688 L 329.15625 140.675781 L 323.152344 140.675781 L 323.152344 137.679688 Z M 329.15625 143.671875 L 329.15625 146.667969 L 323.152344 146.667969 L 323.152344 143.671875 Z M 329.15625 149.664062 L 329.15625 152.660156 L 323.152344 152.660156 L 323.152344 149.664062 Z M 329.15625 155.65625 L 329.15625 158.652344 L 323.152344 158.652344 L 323.152344 155.65625 Z M 329.15625 161.648438 L 329.15625 164.644531 L 323.152344 164.644531 L 323.152344 161.648438 Z M 329.15625 167.644531 L 329.15625 170.640625 L 323.152344 170.640625 L 323.152344 167.644531 Z M 329.15625 173.636719 L 329.15625 176.632812 L 323.152344 176.632812 L 323.152344 173.636719 Z M 329.15625 179.628906 L 329.15625 182.625 L 323.152344 182.625 L 323.152344 179.628906 Z M 329.15625 185.621094 L 329.15625 188.617188 L 323.152344 188.617188 L 323.152344 185.621094 Z M 329.15625 191.613281 L 329.15625 194.609375 L 323.152344 194.609375 L 323.152344 191.613281 Z M 329.15625 197.605469 L 329.15625 200.601562 L 323.152344 200.601562 L 323.152344 197.605469 Z M 329.15625 203.597656 L 329.15625 206.59375 L 323.152344 206.59375 L 323.152344 203.597656 Z M 329.15625 209.59375 L 329.15625 212.589844 L 323.152344 212.589844 L 323.152344 209.59375 Z M 329.15625 215.585938 L 329.15625 218.582031 L 323.152344 218.582031 L 323.152344 215.585938 Z M 329.15625 221.578125 L 329.15625 224.574219 L 323.152344 224.574219 L 323.152344 221.578125 Z M 329.15625 227.570312 L 329.15625 230.566406 L 323.152344 230.566406 L 323.152344 227.570312 Z M 329.15625 233.5625 L 329.15625 236.558594 L 323.152344 236.558594 L 323.152344 233.5625 Z M 329.15625 239.554688 L 329.15625 242.550781 L 323.152344 242.550781 L 323.152344 239.554688 Z M 329.15625 245.546875 L 329.15625 247.746094 L 323.152344 247.746094 L 323.152344 245.546875 Z M 329.15625 245.546875 " fill-opacity="1" fill-rule="nonzero"/></g></g><g fill="#f4f9fd" fill-opacity="1"><g transform="translate(79.679701, 124.658479)"><g><path d="M -2.84375 -22.625 L -0.109375 -19.578125 L -2.78125 -17.015625 L -3.015625 -16.78125 L 2.609375 -11.203125 L 7 -7.296875 L 3.125 -3.265625 L -0.515625 -7.125 L -6.734375 -12.890625 L -6.984375 -12.640625 L -9.453125 -9.84375 L -9.96875 -9.875 L -12.6875 -12.921875 L -3.328125 -22.671875 Z M -2.84375 -22.625 "/></g></g></g><g fill="#f4f9fd" fill-opacity="1"><g transform="translate(90.569608, 113.381056)"><g><path d="M 8.28125 -12.671875 L 8.78125 -12.578125 L 11.140625 -9.21875 L 1.296875 -1.078125 L -1.890625 -5.34375 L -10.25 -15.03125 L -0.25 -23.3125 L 0.25 -23.203125 L 2.546875 -19.828125 L -0.96875 -17.09375 L -3.1875 -15.265625 L -1.609375 -13.28125 L 0.53125 -15.046875 L 2.703125 -16.96875 L 3.203125 -16.859375 L 5.546875 -13.484375 L 3 -11.484375 L 1.0625 -9.875 L 1.703125 -9.046875 L 2.75 -7.875 L 4.828125 -9.59375 Z M 8.28125 -12.671875 "/></g></g></g><g fill="#f4f9fd" fill-opacity="1"><g transform="translate(103.066207, 103.027679)"><g><path d="M 14.578125 -9.265625 L 9.78125 -6.21875 L 7.75 -8.484375 L 7.6875 -8.53125 L 5.328125 -7.109375 L 3.453125 -5.796875 L 4.6875 -2.96875 L 0.046875 -0.03125 L -5.03125 -18.25 L 0.671875 -21.890625 Z M 4.78125 -11.53125 L 0.546875 -15.875 L 0.28125 -15.703125 L 2.125 -9.84375 L 3.484375 -10.671875 Z M 4.78125 -11.53125 "/></g></g></g><g fill="#f4f9fd" fill-opacity="1"><g transform="translate(118.596765, 93.015539)"><g><path d="M 19.828125 -8.75 L 15.328125 -6.765625 L 12.96875 -11.71875 L 10.84375 -15.765625 L 10.53125 -15.625 L 11.25 -6.828125 L 7.375 -5.125 L 1.796875 -11.78125 L 1.5 -11.640625 L 2.765625 -7.796875 L 4.953125 -2.1875 L 0.671875 -0.296875 L -5.046875 -17.5625 L 0.875 -20.171875 L 2.390625 -18.046875 L 6.546875 -12.671875 L 6.84375 -12.796875 L 5.859375 -19.359375 L 5.34375 -22.140625 L 11.1875 -24.734375 Z M 19.828125 -8.75 "/></g></g></g><g fill="#f4f9fd" fill-opacity="1"><g transform="translate(140.557586, 83.917838)"><g/></g></g><g fill="#f4f9fd" fill-opacity="1"><g transform="translate(145.371073, 82.111473)"><g><path d="M 16.84375 -3.875 L 11.296875 -2.59375 L 10.140625 -5.40625 L 10.09375 -5.484375 L 7.390625 -4.921875 L 5.171875 -4.296875 L 5.40625 -1.25 L 0.0625 -0.015625 L 1.34375 -18.890625 L 7.9375 -20.40625 Z M 8.34375 -9.28125 L 5.8125 -14.796875 L 5.5 -14.71875 L 5.28125 -8.578125 L 6.84375 -8.890625 Z M 8.34375 -9.28125 "/></g></g></g><g fill="#f4f9fd" fill-opacity="1"><g transform="translate(163.554663, 78.073961)"><g><path d="M 13.9375 -5.921875 L 14.296875 -5.5625 L 14.375 -1.453125 L 1.671875 -0.171875 L 1.40625 -5.484375 L -0.15625 -18.1875 L 12.765625 -19.5 L 13.125 -19.140625 L 13.15625 -15.046875 L 8.71875 -14.75 L 5.859375 -14.453125 L 6.046875 -11.921875 L 8.8125 -12.203125 L 11.703125 -12.578125 L 12.046875 -12.21875 L 12.125 -8.125 L 8.875 -7.875 L 6.375 -7.625 L 6.453125 -6.5625 L 6.671875 -5.015625 L 9.34375 -5.28125 Z M 13.9375 -5.921875 "/></g></g></g><g fill="#f4f9fd" fill-opacity="1"><g transform="translate(179.696058, 76.425047)"><g><path d="M 13.78125 -6.8125 C 15.070312 -4.6875 16.367188 -2.707031 17.671875 -0.875 L 17.578125 -0.28125 C 15.660156 0.257812 13.769531 0.566406 11.90625 0.640625 L 11.390625 0.171875 L 11.078125 -0.546875 C 10.941406 -0.847656 10.65625 -1.484375 10.21875 -2.453125 C 9.789062 -3.421875 9.421875 -4.332031 9.109375 -5.1875 L 7.234375 -5.234375 L 7.3125 0.171875 L 1.6875 0.046875 L 2.078125 -5.265625 L 2.125 -18.0625 L 10.71875 -17.890625 C 12.75 -17.835938 14.300781 -17.316406 15.375 -16.328125 C 16.457031 -15.347656 16.976562 -13.953125 16.9375 -12.140625 C 16.90625 -11.078125 16.613281 -10.082031 16.0625 -9.15625 C 15.507812 -8.238281 14.75 -7.457031 13.78125 -6.8125 Z M 11.015625 -11.71875 C 11.023438 -12.46875 10.84375 -13.03125 10.46875 -13.40625 C 10.101562 -13.78125 9.488281 -13.992188 8.625 -14.046875 L 7.625 -14 L 7.40625 -9.3125 L 9.453125 -9.15625 C 9.972656 -9.382812 10.359375 -9.695312 10.609375 -10.09375 C 10.859375 -10.5 10.992188 -11.039062 11.015625 -11.71875 Z M 11.015625 -11.71875 "/></g></g></g><g fill="#f4f9fd" fill-opacity="1"><g transform="translate(198.359701, 76.926951)"><g><path d="M 12.375 -16.6875 C 14.976562 -16.269531 16.863281 -15.175781 18.03125 -13.40625 C 19.195312 -11.644531 19.550781 -9.359375 19.09375 -6.546875 C 18.59375 -3.453125 17.425781 -1.179688 15.59375 0.265625 C 13.757812 1.710938 11.414062 2.203125 8.5625 1.734375 C 5.957031 1.316406 4.070312 0.21875 2.90625 -1.5625 C 1.75 -3.351562 1.398438 -5.679688 1.859375 -8.546875 C 2.359375 -11.609375 3.519531 -13.847656 5.34375 -15.265625 C 7.175781 -16.679688 9.519531 -17.15625 12.375 -16.6875 Z M 11.171875 -12.34375 C 10.441406 -12.46875 9.867188 -12.429688 9.453125 -12.234375 C 9.046875 -12.046875 8.71875 -11.648438 8.46875 -11.046875 C 8.21875 -10.453125 7.992188 -9.550781 7.796875 -8.34375 C 7.546875 -6.820312 7.4375 -5.648438 7.46875 -4.828125 C 7.507812 -4.015625 7.703125 -3.421875 8.046875 -3.046875 C 8.390625 -2.671875 8.945312 -2.421875 9.71875 -2.296875 C 10.4375 -2.171875 11.003906 -2.203125 11.421875 -2.390625 C 11.835938 -2.578125 12.171875 -2.976562 12.421875 -3.59375 C 12.679688 -4.207031 12.90625 -5.109375 13.09375 -6.296875 C 13.34375 -7.804688 13.445312 -8.96875 13.40625 -9.78125 C 13.375 -10.601562 13.1875 -11.203125 12.84375 -11.578125 C 12.5 -11.960938 11.941406 -12.21875 11.171875 -12.34375 Z M 11.171875 -12.34375 "/></g></g></g><g fill="#f4f9fd" fill-opacity="1"><g transform="translate(217.382317, 80.102755)"><g><path d="M 16.53125 5.046875 L 11.09375 3.390625 L 11.484375 0.359375 L 11.484375 0.296875 L 8.875 -0.578125 L 6.640625 -1.15625 L 5.3125 1.625 L 0.0625 0.015625 L 10.59375 -15.6875 L 17.0625 -13.71875 Z M 11.859375 -3.875 L 12.421875 -9.90625 L 12.109375 -10 L 8.859375 -4.796875 L 10.359375 -4.296875 Z M 11.859375 -3.875 "/></g></g></g><g fill="#f4f9fd" fill-opacity="1"><g transform="translate(235.15936, 85.689334)"><g><path d="M 15.328125 -13.359375 C 16.953125 -12.640625 18.414062 -11.628906 19.71875 -10.328125 L 17.046875 -6.515625 L 16.1875 -6.53125 C 15.675781 -7.289062 15.128906 -7.953125 14.546875 -8.515625 C 13.960938 -9.085938 13.457031 -9.46875 13.03125 -9.65625 C 12.632812 -9.832031 12.285156 -9.894531 11.984375 -9.84375 C 11.691406 -9.800781 11.488281 -9.648438 11.375 -9.390625 C 11.226562 -9.066406 11.273438 -8.710938 11.515625 -8.328125 C 11.765625 -7.941406 12.21875 -7.378906 12.875 -6.640625 C 13.632812 -5.785156 14.238281 -5.035156 14.6875 -4.390625 C 15.144531 -3.753906 15.457031 -3.015625 15.625 -2.171875 C 15.800781 -1.328125 15.679688 -0.4375 15.265625 0.5 C 14.796875 1.539062 14.085938 2.351562 13.140625 2.9375 C 12.191406 3.53125 11.078125 3.835938 9.796875 3.859375 C 8.523438 3.890625 7.191406 3.59375 5.796875 2.96875 C 4.054688 2.1875 2.375 1.039062 0.75 -0.46875 L 3.484375 -4.578125 L 4.140625 -4.65625 C 4.640625 -3.707031 5.265625 -2.859375 6.015625 -2.109375 C 6.765625 -1.359375 7.4375 -0.851562 8.03125 -0.59375 C 8.507812 -0.375 8.882812 -0.296875 9.15625 -0.359375 C 9.4375 -0.429688 9.632812 -0.585938 9.75 -0.828125 C 9.90625 -1.171875 9.851562 -1.550781 9.59375 -1.96875 C 9.34375 -2.382812 8.890625 -2.957031 8.234375 -3.6875 C 7.484375 -4.507812 6.882812 -5.238281 6.4375 -5.875 C 5.988281 -6.507812 5.6875 -7.242188 5.53125 -8.078125 C 5.375 -8.921875 5.503906 -9.8125 5.921875 -10.75 C 6.410156 -11.820312 7.132812 -12.65625 8.09375 -13.25 C 9.0625 -13.851562 10.175781 -14.171875 11.4375 -14.203125 C 12.707031 -14.234375 14.003906 -13.953125 15.328125 -13.359375 Z M 15.328125 -13.359375 "/></g></g></g><g fill="#f4f9fd" fill-opacity="1"><g transform="translate(249.679904, 92.258054)"><g><path d="M 21.375 -7.9375 L 19.046875 -4.59375 L 15.9375 -6.609375 L 15.65625 -6.765625 L 11.5 -0.03125 L 8.703125 5.140625 L 3.890625 2.296875 L 6.8125 -2.140625 L 11.015625 -9.515625 L 10.703125 -9.703125 L 7.421875 -11.46875 L 7.328125 -11.96875 L 9.671875 -15.328125 L 21.328125 -8.4375 Z M 21.375 -7.9375 "/></g></g></g><g fill="#f4f9fd" fill-opacity="1"><g transform="translate(263.146993, 100.179872)"><g><path d="M 15.140625 2.65625 C 14.921875 5.132812 14.796875 7.492188 14.765625 9.734375 L 14.328125 10.171875 C 12.460938 9.472656 10.765625 8.597656 9.234375 7.546875 L 9.078125 6.859375 L 9.265625 6.109375 C 9.316406 5.785156 9.457031 5.101562 9.6875 4.0625 C 9.925781 3.03125 10.164062 2.078125 10.40625 1.203125 L 8.921875 0.0625 L 5.796875 4.46875 L 1.34375 1.03125 L 4.796875 -3.015625 L 12.40625 -13.3125 L 19.21875 -8.078125 C 20.820312 -6.835938 21.765625 -5.503906 22.046875 -4.078125 C 22.335938 -2.648438 21.925781 -1.21875 20.8125 0.21875 C 20.164062 1.0625 19.347656 1.691406 18.359375 2.109375 C 17.367188 2.523438 16.296875 2.707031 15.140625 2.65625 Z M 15.796875 -2.9375 C 16.253906 -3.53125 16.441406 -4.085938 16.359375 -4.609375 C 16.285156 -5.140625 15.921875 -5.675781 15.265625 -6.21875 L 14.421875 -6.765625 L 11.46875 -3.140625 L 13.015625 -1.796875 C 13.585938 -1.671875 14.09375 -1.695312 14.53125 -1.875 C 14.96875 -2.050781 15.390625 -2.40625 15.796875 -2.9375 Z M 15.796875 -2.9375 "/></g></g></g><g fill="#f4f9fd" fill-opacity="1"><g transform="translate(277.901963, 111.618991)"><g><path d="M 19.859375 -6.15625 C 21.703125 -4.269531 22.570312 -2.269531 22.46875 -0.15625 C 22.375 1.957031 21.3125 4.015625 19.28125 6.015625 C 17.039062 8.210938 14.753906 9.347656 12.421875 9.421875 C 10.085938 9.503906 7.90625 8.515625 5.875 6.453125 C 4.03125 4.578125 3.164062 2.570312 3.28125 0.4375 C 3.394531 -1.6875 4.484375 -3.765625 6.546875 -5.796875 C 8.765625 -7.972656 11.03125 -9.09375 13.34375 -9.15625 C 15.65625 -9.21875 17.828125 -8.21875 19.859375 -6.15625 Z M 16.296875 -3.34375 C 15.785156 -3.863281 15.3125 -4.171875 14.875 -4.265625 C 14.4375 -4.367188 13.9375 -4.25 13.375 -3.90625 C 12.8125 -3.570312 12.097656 -2.976562 11.234375 -2.125 C 10.128906 -1.039062 9.347656 -0.160156 8.890625 0.515625 C 8.429688 1.203125 8.226562 1.800781 8.28125 2.3125 C 8.34375 2.820312 8.648438 3.351562 9.203125 3.90625 C 9.710938 4.425781 10.1875 4.726562 10.625 4.8125 C 11.0625 4.90625 11.5625 4.78125 12.125 4.4375 C 12.695312 4.101562 13.414062 3.515625 14.28125 2.671875 C 15.375 1.597656 16.148438 0.71875 16.609375 0.03125 C 17.066406 -0.644531 17.265625 -1.238281 17.203125 -1.75 C 17.148438 -2.257812 16.847656 -2.789062 16.296875 -3.34375 Z M 16.296875 -3.34375 "/></g></g></g><g clip-path="url(#f864f4c419)"><path fill="#ffffff" d="M 160.445312 163.589844 C 162.585938 164.148438 164.039062 166.09375 164.035156 168.308594 C 164.035156 168.320312 164.035156 168.332031 164.035156 168.34375 C 164.035156 179.761719 173.300781 189.011719 184.730469 189.011719 C 196.160156 189.011719 205.425781 179.761719 205.425781 168.34375 C 205.425781 168.332031 205.425781 168.320312 205.425781 168.308594 C 205.421875 166.09375 206.875 164.148438 209.019531 163.589844 L 303.144531 139.113281 C 303.144531 139.113281 303.078125 139.371094 302.933594 139.855469 C 299.386719 151.71875 289.511719 160.617188 277.347656 163.015625 L 244.304688 169.527344 C 243.21875 169.742188 242.433594 170.765625 242.617188 171.855469 C 242.804688 172.984375 243.886719 173.726562 245.003906 173.507812 L 289.675781 164.699219 C 289.648438 164.734375 289.625 164.769531 289.597656 164.800781 C 284.660156 171.210938 277.523438 175.566406 269.582031 177.132812 L 231.488281 184.644531 C 230.390625 184.859375 229.679688 185.921875 229.894531 187.015625 C 230.109375 188.109375 231.175781 188.820312 232.269531 188.605469 L 274.308594 180.316406 C 261.804688 190.25 244.222656 198.816406 219.738281 201.617188 C 188.542969 201.617188 184.730469 235.863281 184.730469 235.863281 C 184.730469 235.863281 180.917969 201.617188 149.722656 201.617188 C 125.238281 198.816406 107.660156 190.25 95.15625 180.316406 L 137.191406 188.605469 C 138.285156 188.820312 139.351562 188.109375 139.566406 187.015625 C 139.78125 185.921875 139.070312 184.859375 137.972656 184.644531 L 99.882812 177.132812 C 91.9375 175.566406 84.800781 171.210938 79.863281 164.800781 C 79.835938 164.769531 79.8125 164.734375 79.785156 164.699219 L 124.457031 173.507812 C 125.574219 173.726562 126.65625 172.984375 126.84375 171.855469 C 127.027344 170.765625 126.246094 169.742188 125.160156 169.527344 L 92.113281 163.015625 C 79.949219 160.617188 70.074219 151.71875 66.527344 139.855469 C 66.382812 139.371094 66.316406 139.113281 66.316406 139.113281 L 160.445312 163.589844 " fill-opacity="1" fill-rule="nonzero"/></g><g clip-path="url(#c6881c5bc8)"><path fill="#ffffff" d="M 168.148438 109.699219 L 185.023438 149.386719 L 201.898438 109.699219 L 188.773438 109.679688 L 185.023438 138.039062 L 181.273438 109.679688 Z M 168.148438 109.699219 " fill-opacity="1" fill-rule="nonzero"/></g><g fill="#f4f9fd" fill-opacity="1"><g transform="translate(112.727663, 305.968004)"><g><path d="M 1.828125 0.5625 L 14.5625 -40.453125 L 27.0625 -36.5625 L 22.734375 -10.484375 L 33.9375 -34.4375 L 46.546875 -30.515625 L 33.8125 10.5 L 26.3125 8.171875 L 35.484375 -21.390625 L 21.578125 6.703125 L 14.234375 4.421875 L 18.390625 -26.703125 L 9.21875 2.859375 Z M 1.828125 0.5625 "/></g></g></g><g fill="#f4f9fd" fill-opacity="1"><g transform="translate(154.56556, 317.627336)"><g><path d="M 13.984375 1.421875 C 12.691406 1.535156 11.960938 1.582031 11.796875 1.5625 C 8.347656 1.226562 5.828125 -0.0078125 4.234375 -2.15625 C 2.640625 -4.3125 2.023438 -7.300781 2.390625 -11.125 L 4.421875 -31.765625 C 4.773438 -35.453125 5.945312 -38.160156 7.9375 -39.890625 C 9.9375 -41.617188 12.644531 -42.316406 16.0625 -41.984375 C 19.476562 -41.648438 21.992188 -40.441406 23.609375 -38.359375 C 25.234375 -36.273438 25.867188 -33.390625 25.515625 -29.703125 L 23.484375 -9.0625 C 23.140625 -5.539062 22.070312 -2.832031 20.28125 -0.9375 L 23.734375 1.765625 L 20.375 6.5625 Z M 12.578125 -6.3125 C 13.410156 -6.226562 13.976562 -6.570312 14.28125 -7.34375 C 14.59375 -8.125 14.8125 -9.140625 14.9375 -10.390625 L 16.890625 -30.40625 C 16.992188 -31.5 16.9375 -32.375 16.71875 -33.03125 C 16.5 -33.6875 16.003906 -34.050781 15.234375 -34.125 C 13.878906 -34.257812 13.085938 -33.164062 12.859375 -30.84375 L 10.890625 -10.640625 C 10.765625 -9.441406 10.796875 -8.441406 10.984375 -7.640625 C 11.179688 -6.835938 11.710938 -6.394531 12.578125 -6.3125 Z M 12.578125 -6.3125 "/></g></g></g><g fill="#f4f9fd" fill-opacity="1"><g transform="translate(183.941303, 319.861943)"><g><path d="M 0.96875 -12.5 L 0.75 -18.140625 L 13.328125 -18.625 L 13.546875 -12.984375 Z M 0.96875 -12.5 "/></g></g></g><g fill="#f4f9fd" fill-opacity="1"><g transform="translate(204.273, 319.057144)"><g><path d="M 1.125 -2.28125 C 0.78125 -4.21875 0.765625 -6.054688 1.078125 -7.796875 C 1.390625 -9.546875 1.875 -11.15625 2.53125 -12.625 C 3.1875 -14.09375 4.082031 -15.847656 5.21875 -17.890625 C 6.363281 -19.984375 7.257812 -21.75 7.90625 -23.1875 C 8.550781 -24.625 9.03125 -26.222656 9.34375 -27.984375 C 9.65625 -29.742188 9.640625 -31.59375 9.296875 -33.53125 C 9.085938 -34.675781 8.765625 -35.539062 8.328125 -36.125 C 7.890625 -36.707031 7.25 -36.925781 6.40625 -36.78125 C 4.988281 -36.53125 4.5 -35.140625 4.9375 -32.609375 L 5.859375 -27.453125 L -3.046875 -25.875 L -3.609375 -28.46875 C -4.171875 -31.675781 -4.304688 -34.367188 -4.015625 -36.546875 C -3.722656 -38.734375 -2.851562 -40.515625 -1.40625 -41.890625 C 0.0390625 -43.273438 2.203125 -44.222656 5.078125 -44.734375 C 8.628906 -45.359375 11.546875 -44.847656 13.828125 -43.203125 C 16.109375 -41.554688 17.570312 -38.910156 18.21875 -35.265625 C 18.632812 -32.941406 18.691406 -30.773438 18.390625 -28.765625 C 18.085938 -26.765625 17.59375 -24.972656 16.90625 -23.390625 C 16.21875 -21.816406 15.269531 -19.941406 14.0625 -17.765625 C 13.1875 -16.222656 12.472656 -14.859375 11.921875 -13.671875 C 11.367188 -12.492188 10.894531 -11.296875 10.5 -10.078125 L 22.03125 -12.109375 L 23.4375 -4.140625 L 1.484375 -0.265625 Z M 1.125 -2.28125 "/></g></g></g><g fill="#f4f9fd" fill-opacity="1"><g transform="translate(233.797048, 313.381912)"><g><path d="M 11.296875 -3.46875 C 7.742188 -2.207031 4.820312 -2.222656 2.53125 -3.515625 C 0.238281 -4.804688 -1.582031 -7.367188 -2.9375 -11.203125 L -4.4375 -15.4375 L 3.84375 -18.375 L 5.34375 -14.140625 C 5.769531 -12.910156 6.257812 -12.015625 6.8125 -11.453125 C 7.375 -10.890625 8.125 -10.773438 9.0625 -11.109375 C 9.71875 -11.347656 10.113281 -11.753906 10.25 -12.328125 C 10.382812 -12.898438 10.367188 -13.519531 10.203125 -14.1875 C 10.035156 -14.851562 9.738281 -15.800781 9.3125 -17.03125 L 8.953125 -18.015625 C 7.722656 -21.492188 5.957031 -22.828125 3.65625 -22.015625 C 3.257812 -21.878906 3.003906 -21.773438 2.890625 -21.703125 L 0.328125 -28.953125 C 1.765625 -29.460938 2.726562 -30.164062 3.21875 -31.0625 C 3.71875 -31.96875 3.71875 -33.128906 3.21875 -34.546875 C 2.40625 -36.835938 1.335938 -37.753906 0.015625 -37.296875 C -0.796875 -37.003906 -1.242188 -36.609375 -1.328125 -36.109375 C -1.421875 -35.617188 -1.394531 -35.046875 -1.25 -34.390625 C -1.101562 -33.734375 -1.003906 -33.257812 -0.953125 -32.96875 L -0.515625 -31.734375 L -8.890625 -28.78125 L -9.4375 -30.171875 C -10.71875 -33.898438 -10.800781 -36.9375 -9.6875 -39.28125 C -8.582031 -41.632812 -6.234375 -43.445312 -2.640625 -44.71875 C 4.234375 -47.144531 8.941406 -44.757812 11.484375 -37.5625 C 12.222656 -35.46875 12.53125 -33.695312 12.40625 -32.25 C 12.28125 -30.8125 11.613281 -29.597656 10.40625 -28.609375 C 11.75 -28.429688 12.835938 -28.023438 13.671875 -27.390625 C 14.515625 -26.765625 15.234375 -25.882812 15.828125 -24.75 C 16.421875 -23.613281 17.078125 -22.039062 17.796875 -20.03125 C 19.273438 -15.84375 19.519531 -12.375 18.53125 -9.625 C 17.539062 -6.875 15.128906 -4.820312 11.296875 -3.46875 Z M 11.296875 -3.46875 "/></g></g></g><g fill="#f4f9fd" fill-opacity="1"><g transform="translate(142.074795, 258.437721)"><g><path d="M 1.3125 -17.8125 L 7.296875 -17.8125 C 8.867188 -17.8125 10.039062 -17.367188 10.8125 -16.484375 C 11.59375 -15.597656 11.984375 -14.320312 11.984375 -12.65625 C 11.984375 -10.75 11.53125 -9.421875 10.625 -8.671875 C 9.726562 -7.929688 8.46875 -7.5625 6.84375 -7.5625 L 5.265625 -7.5625 L 5.265625 0 L 1.3125 0 Z M 6.578125 -10.3125 C 7.265625 -10.3125 7.722656 -10.492188 7.953125 -10.859375 C 8.179688 -11.234375 8.296875 -11.851562 8.296875 -12.71875 C 8.296875 -13.507812 8.1875 -14.09375 7.96875 -14.46875 C 7.75 -14.851562 7.28125 -15.046875 6.5625 -15.046875 L 5.265625 -15.046875 L 5.265625 -10.3125 Z M 6.578125 -10.3125 "/></g></g></g><g fill="#f4f9fd" fill-opacity="1"><g transform="translate(155.844557, 258.437721)"><g><path d="M 1.3125 -17.8125 L 6.21875 -17.8125 C 8.175781 -17.8125 9.648438 -17.46875 10.640625 -16.78125 C 11.640625 -16.09375 12.140625 -14.867188 12.140625 -13.109375 C 12.140625 -11.921875 11.984375 -10.972656 11.671875 -10.265625 C 11.367188 -9.566406 10.800781 -9.019531 9.96875 -8.625 L 12.40625 0 L 8.34375 0 L 6.375 -7.984375 L 5.265625 -7.984375 L 5.265625 0 L 1.3125 0 Z M 6.359375 -10.25 C 7.148438 -10.25 7.703125 -10.457031 8.015625 -10.875 C 8.328125 -11.289062 8.484375 -11.921875 8.484375 -12.765625 C 8.484375 -13.566406 8.335938 -14.171875 8.046875 -14.578125 C 7.753906 -14.984375 7.25 -15.1875 6.53125 -15.1875 L 5.265625 -15.1875 L 5.265625 -10.25 Z M 6.359375 -10.25 "/></g></g></g><g fill="#f4f9fd" fill-opacity="1"><g transform="translate(170.252202, 258.437721)"><g><path d="M 6.421875 0.265625 C 4.503906 0.265625 3.132812 -0.226562 2.3125 -1.21875 C 1.488281 -2.207031 1.078125 -3.671875 1.078125 -5.609375 L 1.078125 -12.234375 C 1.078125 -14.171875 1.488281 -15.625 2.3125 -16.59375 C 3.132812 -17.570312 4.503906 -18.0625 6.421875 -18.0625 C 8.359375 -18.0625 9.738281 -17.566406 10.5625 -16.578125 C 11.394531 -15.597656 11.8125 -14.148438 11.8125 -12.234375 L 11.8125 -5.609375 C 11.8125 -3.671875 11.394531 -2.207031 10.5625 -1.21875 C 9.738281 -0.226562 8.359375 0.265625 6.421875 0.265625 Z M 6.421875 -2.53125 C 6.984375 -2.53125 7.347656 -2.71875 7.515625 -3.09375 C 7.691406 -3.46875 7.78125 -3.976562 7.78125 -4.625 L 7.78125 -13.203125 C 7.78125 -13.859375 7.691406 -14.367188 7.515625 -14.734375 C 7.347656 -15.109375 6.984375 -15.296875 6.421875 -15.296875 C 5.890625 -15.296875 5.535156 -15.109375 5.359375 -14.734375 C 5.191406 -14.359375 5.109375 -13.847656 5.109375 -13.203125 L 5.109375 -4.625 C 5.109375 -3.976562 5.1875 -3.46875 5.34375 -3.09375 C 5.507812 -2.71875 5.867188 -2.53125 6.421875 -2.53125 Z M 6.421875 -2.53125 "/></g></g></g><g fill="#f4f9fd" fill-opacity="1"><g transform="translate(184.351897, 258.437721)"><g><path d="M 0.28125 -2.28125 C 0.851562 -2.28125 1.285156 -2.320312 1.578125 -2.40625 C 1.878906 -2.5 2.09375 -2.675781 2.21875 -2.9375 C 2.351562 -3.195312 2.421875 -3.582031 2.421875 -4.09375 L 2.421875 -17.8125 L 6.359375 -17.8125 L 6.359375 -3.921875 C 6.359375 -2.898438 6.234375 -2.070312 5.984375 -1.4375 C 5.734375 -0.8125 5.300781 -0.335938 4.6875 -0.015625 C 4.082031 0.304688 3.253906 0.46875 2.203125 0.46875 L 0.28125 0.46875 Z M 0.28125 -2.28125 "/></g></g></g><g fill="#f4f9fd" fill-opacity="1"><g transform="translate(193.238523, 258.437721)"><g><path d="M 1.3125 -17.8125 L 9.328125 -17.8125 L 9.328125 -15.140625 L 5.265625 -15.140625 L 5.265625 -10.71875 L 8.359375 -10.71875 L 8.359375 -7.984375 L 5.265625 -7.984375 L 5.265625 -2.65625 L 9.375 -2.65625 L 9.375 0 L 1.3125 0 Z M 1.3125 -17.8125 "/></g></g></g><g fill="#f4f9fd" fill-opacity="1"><g transform="translate(204.280772, 258.437721)"><g><path d="M 6.421875 0.265625 C 4.484375 0.265625 3.109375 -0.242188 2.296875 -1.265625 C 1.484375 -2.285156 1.078125 -3.753906 1.078125 -5.671875 L 1.078125 -12.09375 C 1.078125 -14.0625 1.476562 -15.546875 2.28125 -16.546875 C 3.09375 -17.554688 4.472656 -18.0625 6.421875 -18.0625 C 8.285156 -18.0625 9.601562 -17.613281 10.375 -16.71875 C 11.15625 -15.820312 11.546875 -14.550781 11.546875 -12.90625 L 11.546875 -11.375 L 7.703125 -11.375 L 7.703125 -13.15625 C 7.703125 -13.84375 7.628906 -14.367188 7.484375 -14.734375 C 7.335938 -15.109375 6.984375 -15.296875 6.421875 -15.296875 C 5.867188 -15.296875 5.503906 -15.097656 5.328125 -14.703125 C 5.148438 -14.316406 5.0625 -13.78125 5.0625 -13.09375 L 5.0625 -4.703125 C 5.0625 -4.003906 5.148438 -3.46875 5.328125 -3.09375 C 5.515625 -2.71875 5.878906 -2.53125 6.421875 -2.53125 C 6.960938 -2.53125 7.3125 -2.71875 7.46875 -3.09375 C 7.625 -3.46875 7.703125 -4.003906 7.703125 -4.703125 L 7.703125 -6.578125 L 11.546875 -6.578125 L 11.546875 -5.03125 C 11.546875 -3.363281 11.15625 -2.0625 10.375 -1.125 C 9.601562 -0.195312 8.285156 0.265625 6.421875 0.265625 Z M 6.421875 0.265625 "/></g></g></g><g fill="#f4f9fd" fill-opacity="1"><g transform="translate(217.87456, 258.437721)"><g><path d="M 2.921875 -14.890625 L 0.234375 -14.890625 L 0.234375 -17.8125 L 9.546875 -17.8125 L 9.546875 -14.890625 L 6.890625 -14.890625 L 6.890625 0 L 2.921875 0 Z M 2.921875 -14.890625 "/></g></g></g></svg>